<svg xmlns="http://www.w3.org/2000/svg" width="710" height="390" viewBox="0 0 710 390" font-family="system-ui, sans-serif">
<rect width="710" height="390" fill="#ffffff"/>
<text x="355" y="28" font-size="18" text-anchor="middle" fill="#222" font-weight="600">RULER pass rate — Qwen3.6-35B-A3B Q8 on RTX Pro 6000 llama.cpp CUDA</text>
<text x="355" y="52" font-size="12" text-anchor="middle" fill="#555" font-weight="normal">cells: (tasks passed) / (tasks attempted). 4 tasks: niah_single, niah_multi, variable, common_words.</text>
<text x="220.0" y="78" font-size="13" text-anchor="middle" fill="#222" font-weight="600">32K</text>
<text x="320.0" y="78" font-size="13" text-anchor="middle" fill="#222" font-weight="600">128K</text>
<text x="420.0" y="78" font-size="13" text-anchor="middle" fill="#222" font-weight="600">256K</text>
<text x="520.0" y="78" font-size="13" text-anchor="middle" fill="#222" font-weight="600">512K</text>
<text x="620.0" y="78" font-size="13" text-anchor="middle" fill="#222" font-weight="600">1024K</text>
<text x="158" y="125.0" font-size="13" text-anchor="end" fill="#222" font-weight="600">Native (no YaRN)</text>
<circle cx="20" cy="120.0" r="6" fill="#1f77b4" stroke="#fff" stroke-width="1"/>
<text x="158" y="185.0" font-size="13" text-anchor="end" fill="#222" font-weight="600">YaRN ×2 (512K)</text>
<circle cx="20" cy="180.0" r="6" fill="#ff7f0e" stroke="#fff" stroke-width="1"/>
<text x="158" y="245.0" font-size="13" text-anchor="end" fill="#222" font-weight="600">YaRN ×4 (1M)</text>
<circle cx="20" cy="240.0" r="6" fill="#2ca02c" stroke="#fff" stroke-width="1"/>
<rect x="170" y="90" width="100" height="60" fill="#a8d8a8" stroke="#ccc" stroke-width="1" rx="0"/>
<text x="220.0" y="126.0" font-size="18" text-anchor="middle" fill="#0a4a0a" font-weight="700">4/4</text>
<text x="220.0" y="142.0" font-size="10" text-anchor="middle" fill="#0a4a0a" font-weight="normal">7132 t/s pre</text>
<rect x="270" y="90" width="100" height="60" fill="#a8d8a8" stroke="#ccc" stroke-width="1" rx="0"/>
<text x="320.0" y="126.0" font-size="18" text-anchor="middle" fill="#0a4a0a" font-weight="700">4/4</text>
<text x="320.0" y="142.0" font-size="10" text-anchor="middle" fill="#0a4a0a" font-weight="normal">6160 t/s pre</text>
<rect x="370" y="90" width="100" height="60" fill="#a8d8a8" stroke="#ccc" stroke-width="1" rx="0"/>
<text x="420.0" y="126.0" font-size="18" text-anchor="middle" fill="#0a4a0a" font-weight="700">4/4</text>
<text x="420.0" y="142.0" font-size="10" text-anchor="middle" fill="#0a4a0a" font-weight="normal">4916 t/s pre</text>
<rect x="470" y="90" width="100" height="60" fill="#eeeeee" stroke="#ccc" stroke-width="1" rx="0"/>
<text x="520.0" y="126.0" font-size="18" text-anchor="middle" fill="#aaa" font-weight="700">n/a</text>
<rect x="570" y="90" width="100" height="60" fill="#eeeeee" stroke="#ccc" stroke-width="1" rx="0"/>
<text x="620.0" y="126.0" font-size="18" text-anchor="middle" fill="#aaa" font-weight="700">n/a</text>
<rect x="170" y="150" width="100" height="60" fill="#a8d8a8" stroke="#ccc" stroke-width="1" rx="0"/>
<text x="220.0" y="186.0" font-size="18" text-anchor="middle" fill="#0a4a0a" font-weight="700">4/4</text>
<text x="220.0" y="202.0" font-size="10" text-anchor="middle" fill="#0a4a0a" font-weight="normal">7061 t/s pre</text>
<rect x="270" y="150" width="100" height="60" fill="#a8d8a8" stroke="#ccc" stroke-width="1" rx="0"/>
<text x="320.0" y="186.0" font-size="18" text-anchor="middle" fill="#0a4a0a" font-weight="700">4/4</text>
<text x="320.0" y="202.0" font-size="10" text-anchor="middle" fill="#0a4a0a" font-weight="normal">6165 t/s pre</text>
<rect x="370" y="150" width="100" height="60" fill="#a8d8a8" stroke="#ccc" stroke-width="1" rx="0"/>
<text x="420.0" y="186.0" font-size="18" text-anchor="middle" fill="#0a4a0a" font-weight="700">4/4</text>
<text x="420.0" y="202.0" font-size="10" text-anchor="middle" fill="#0a4a0a" font-weight="normal">4910 t/s pre</text>
<rect x="470" y="150" width="100" height="60" fill="#a8d8a8" stroke="#ccc" stroke-width="1" rx="0"/>
<text x="520.0" y="186.0" font-size="18" text-anchor="middle" fill="#0a4a0a" font-weight="700">4/4</text>
<text x="520.0" y="202.0" font-size="10" text-anchor="middle" fill="#0a4a0a" font-weight="normal">3460 t/s pre</text>
<rect x="570" y="150" width="100" height="60" fill="#eeeeee" stroke="#ccc" stroke-width="1" rx="0"/>
<text x="620.0" y="186.0" font-size="18" text-anchor="middle" fill="#aaa" font-weight="700">n/a</text>
<rect x="170" y="210" width="100" height="60" fill="#a8d8a8" stroke="#ccc" stroke-width="1" rx="0"/>
<text x="220.0" y="246.0" font-size="18" text-anchor="middle" fill="#0a4a0a" font-weight="700">4/4</text>
<text x="220.0" y="262.0" font-size="10" text-anchor="middle" fill="#0a4a0a" font-weight="normal">7063 t/s pre</text>
<rect x="270" y="210" width="100" height="60" fill="#a8d8a8" stroke="#ccc" stroke-width="1" rx="0"/>
<text x="320.0" y="246.0" font-size="18" text-anchor="middle" fill="#0a4a0a" font-weight="700">4/4</text>
<text x="320.0" y="262.0" font-size="10" text-anchor="middle" fill="#0a4a0a" font-weight="normal">6121 t/s pre</text>
<rect x="370" y="210" width="100" height="60" fill="#a8d8a8" stroke="#ccc" stroke-width="1" rx="0"/>
<text x="420.0" y="246.0" font-size="18" text-anchor="middle" fill="#0a4a0a" font-weight="700">4/4</text>
<text x="420.0" y="262.0" font-size="10" text-anchor="middle" fill="#0a4a0a" font-weight="normal">4865 t/s pre</text>
<rect x="470" y="210" width="100" height="60" fill="#a8d8a8" stroke="#ccc" stroke-width="1" rx="0"/>
<text x="520.0" y="246.0" font-size="18" text-anchor="middle" fill="#0a4a0a" font-weight="700">4/4</text>
<text x="520.0" y="262.0" font-size="10" text-anchor="middle" fill="#0a4a0a" font-weight="normal">3445 t/s pre</text>
<rect x="570" y="210" width="100" height="60" fill="#a8d8a8" stroke="#ccc" stroke-width="1" rx="0"/>
<text x="620.0" y="246.0" font-size="18" text-anchor="middle" fill="#0a4a0a" font-weight="700">4/4</text>
<text x="620.0" y="262.0" font-size="10" text-anchor="middle" fill="#0a4a0a" font-weight="normal">2124 t/s pre</text>
<text x="420.0" y="305" font-size="14" text-anchor="middle" fill="#222" font-weight="600">context length (tokens)</text>
<rect x="170" y="333" width="18" height="14" fill="#a8d8a8" stroke="#ccc" stroke-width="1" rx="0"/>
<text x="194" y="345" font-size="11" text-anchor="start" fill="#444" font-weight="normal">all tasks pass</text>
<rect x="320" y="333" width="18" height="14" fill="#f5d88a" stroke="#ccc" stroke-width="1" rx="0"/>
<text x="344" y="345" font-size="11" text-anchor="start" fill="#444" font-weight="normal">≥50% pass</text>
<rect x="470" y="333" width="18" height="14" fill="#f0a8a8" stroke="#ccc" stroke-width="1" rx="0"/>
<text x="494" y="345" font-size="11" text-anchor="start" fill="#444" font-weight="normal"><50% pass</text>
<rect x="620" y="333" width="18" height="14" fill="#eeeeee" stroke="#ccc" stroke-width="1" rx="0"/>
<text x="644" y="345" font-size="11" text-anchor="start" fill="#444" font-weight="normal">n/a (ctx > config max)</text>
<rect x="770" y="333" width="18" height="14" fill="#f7f7f7" stroke="#ccc" stroke-width="1" rx="0"/>
<text x="794" y="345" font-size="11" text-anchor="start" fill="#444" font-weight="normal">not run</text>
</svg>